<svg width="75.591" height="75.591" viewBox="0 0 20 20" xml:space="preserve"
  xmlns="http://www.w3.org/2000/svg">
  <g transform="translate(-82.514 -157.695)">
    <path style="fill:#f9f9f9;stroke-width:1" d="M86.5 177.102c-.31-.108-.628-.526-.629-.829 0-.334.873-4.415.984-4.593.101-.165.111-.166 5.564-.205 3.004-.021 5.54-.01 5.634.025.207.077.21.086.724 2.554.48 2.303.486 2.428.127 2.819l-.267.292-5.933.016c-4.456.012-6-.008-6.204-.079zm.432-7.74c-.091-.13-.12-.369-.117-.958.005-.903.102-1.25.412-1.481.202-.15.354-.167 1.8-.203l1.578-.04.04-3.52c.035-3.173.052-3.551.18-3.833a1.893 1.893 0 0 1 2.224-1.052c.48.134 1.119.753 1.256 1.217.068.23.095 1.266.095 3.651 0 1.831.021 3.385.047 3.453.041.107.254.124 1.573.124 1.668 0 1.828.036 2.085.473.16.271.189 2.096.035 2.25-.072.07-1.42.094-5.59.094h-5.496z"/>
  </g>
</svg>