<svg width="17.235" height="16.584" viewBox="0 0 4.56 4.388" xml:space="preserve"
   xmlns="http://www.w3.org/2000/svg">
   <path style="fill:#f8f8f8;fill-opacity:1;stroke-width:1.00003" d="M1.765 4.226a.228.228 0 0 1-.146-.13c-.033-.075-.064.064.44-1.95.253-1.013.466-1.854.474-1.87.021-.042.06-.08.106-.102a.167.167 0 0 1 .094-.02c.044 0 .061.004.092.018a.209.209 0 0 1 .109.105c.042.086.081-.09-.433 1.964a136.604 136.604 0 0 1-.475 1.87.274.274 0 0 1-.112.106.253.253 0 0 1-.15.01zm-.661-.903c-.05-.01-.088-.034-.147-.094a69.328 69.328 0 0 1-.48-.514C.149 2.362.05 2.25.035 2.22c-.016-.033-.018-.046-.018-.1 0-.052.002-.065.018-.094a.349.349 0 0 1 .04-.06l.478-.444c.51-.47.5-.462.592-.462.112 0 .204.08.222.19a.214.214 0 0 1-.048.177c-.012.016-.185.178-.383.36l-.37.34c-.005.006.085.107.38.425.433.467.423.454.423.549a.22.22 0 0 1-.188.22.378.378 0 0 1-.044.007l-.033-.006zm2.265-.002a.218.218 0 0 1-.178-.22c0-.094-.01-.081.424-.548.293-.317.384-.42.378-.425l-.369-.34a15.487 15.487 0 0 1-.383-.36.223.223 0 0 1 .08-.345.173.173 0 0 1 .094-.022c.091 0 .082-.007.592.463.25.23.465.43.477.444.013.013.031.04.041.059.016.03.018.042.018.095s-.002.066-.018.1c-.015.029-.115.14-.442.493-.484.521-.518.557-.55.578a.218.218 0 0 1-.164.028z"/>
</svg>