<svg width="91.544" height="91.455" viewBox="0 0 24.221 24.197" xml:space="preserve"
  xmlns="http://www.w3.org/2000/svg">
  <path style="fill:#fbfbfb;fill-opacity:1;stroke-width:.999996" d="M73.93 155.04c-.282.008-.562.028-.842.058-2.24.239-4.41 1.143-6.092 2.672a.066.066 0 0 1-.002.002c-3.222 2.768-4.542 7.492-3.219 11.53a.066.066 0 0 1 .002.003c1.3 4.31 5.484 7.538 9.989 7.672 1.116.038 2.239-.066 3.318-.358a.066.066 0 0 1 .002 0c4.344-1.105 7.742-5.112 8.096-9.586a.066.066 0 0 1 0-.002c.453-4.232-1.843-8.576-5.576-10.61a.066.066 0 0 1-.002 0c-1.721-.993-3.704-1.444-5.674-1.382zm.38 2.146c1.698.006 3.391.484 4.807 1.45a.066.066 0 0 1 .006.003c2.966 1.909 4.523 5.69 3.781 9.136v.002a.066.066 0 0 1 0 .006.066.066 0 0 1-.002.006c-.72 3.772-4.148 6.806-7.988 7.026a.066.066 0 0 1-.004 0h-.002c-3.617.316-7.224-1.826-8.693-5.145a.066.066 0 0 1-.006-.006c-1.596-3.387-.708-7.727 2.111-10.199a.066.066 0 0 1 .002-.004h.002c1.432-1.345 3.321-2.104 5.258-2.25.242-.018.486-.026.729-.025zm-.164 3.373a1.105 1.105 0 0 0-.513.16.916.916 0 0 0-.414.603.066.066 0 0 1 0 .002.066.066 0 0 1 0 .002.066.066 0 0 1 0 .002c-.089 1.337-.025 2.687-.041 4.032a.066.066 0 0 1-.002.015c-.144.62.087 1.091.443 1.512.357.422.842.791 1.195 1.197l.002.002.002.002c.9.725 1.527 1.883 2.61 2.283.821.118 1.47-.808 1.082-1.54v-.003l-.002-.002c-.98-1.138-2.11-2.152-3.162-3.234a.066.066 0 0 1-.02-.047c-.003-1.349.008-2.697-.012-4.045a.066.066 0 0 1-.002-.004.912.912 0 0 0-.314-.668 1.154 1.154 0 0 0-.666-.267 1.279 1.279 0 0 0-.186-.002z" transform="matrix(1.10234 0 0 1.10234 -69.741 -170.9)"/>
</svg>