<svg width="58.79" height="61.309" viewBox="0 0 15.555 16.221" xml:space="preserve"
   xmlns="http://www.w3.org/2000/svg">
   <path style="fill:#f8f8f8;fill-opacity:1;stroke-width:1.0538" d="M12.877.012c-.725 0-1.282.002-1.666.006-.192.001-.342.003-.45.005l-.13.006c-.036.002-.016-.015-.135.018a.844.844 0 0 0-.557.46c-.14.273-.166.521-.015.815a.971.971 0 0 0 .422.428.774.774 0 0 0 .187.068c.075.014.143.016.25.02.215.007.591.008 1.346.012l.6.002-1.444 1.445a172.576 172.576 0 0 0-1.82 1.836 4.21 4.21 0 0 0-.277.306.866.866 0 0 0-.126.235c-.05.171-.05.393 0 .56.087.291.281.499.579.59.175.054.398.053.574.002a.869.869 0 0 0 .234-.125c.077-.06.162-.138.307-.277.29-.279.813-.799 1.832-1.817.57-.568 1.086-1.084 1.467-1.46l.002.609c0 .832-.004 1.22.015 1.469.01.124.024.228.076.337.053.11.123.175.149.202a.923.923 0 0 0 1.307.023c.023-.023.107-.085.171-.215.065-.13.076-.25.086-.414.021-.328.015-.903.012-2.158L15.867.768a.383.383 0 0 0-.047-.182l-.045-.084L15.773.5a.974.974 0 0 0-.443-.412.891.891 0 0 0-.207-.055 3.15 3.15 0 0 0-.314-.015c-.3-.006-.85-.006-1.932-.006Zm-6.979 9.38a1.064 1.064 0 0 0-.556.003.868.868 0 0 0-.235.125c-.076.06-.161.138-.306.277-.29.278-.814.799-1.832 1.816-.57.57-1.086 1.084-1.467 1.461l-.002-.61c0-.825.004-1.21-.014-1.454a.926.926 0 0 0-.072-.332c-.048-.107-.114-.17-.139-.198a.96.96 0 0 0-.685-.302.936.936 0 0 0-.826.517l-.051.11a.383.383 0 0 0-.035.162v2.207c0 .807.001 1.366.006 1.732a18.706 18.706 0 0 0 .013.537c.003.035-.005.042.022.131.083.277.25.438.492.551l.105.049a.383.383 0 0 0 .164.037l2.211-.002c.885 0 1.442-.001 1.79-.006.173-.002.294-.006.382-.01.088-.004.098.018.246-.035.603-.215.797-1.002.37-1.476a.81.81 0 0 0-.297-.225.383.383 0 0 0-.002 0 .8.8 0 0 0-.182-.057 1.945 1.945 0 0 0-.25-.017 64.606 64.606 0 0 0-1.332-.012l-.588-.002 1.422-1.424c.738-.738 1.26-1.265 1.604-1.617.171-.176.297-.307.386-.402.045-.048.081-.086.11-.12.028-.032.038-.024.091-.13.14-.277.148-.517.012-.801a.867.867 0 0 0-.555-.482Z" transform="translate(.398 .413) scale(.94894)"/>
</svg>