<svg width="58.79" height="61.309" viewBox="0 0 15.555 16.221" xml:space="preserve"
  xmlns="http://www.w3.org/2000/svg">
  <path style="fill:#fbfbfb;fill-opacity:1;stroke-width:1" d="M7.762 0c-.187 0-.374.005-.472.011-.305.02-.657.06-.876.1-.378.068-.41.076-.489.122a.524.524 0 0 0-.149.142c-.058.088-.063.11-.171.71a102.273 102.273 0 0 1-.172.936c-.075.423-.099.535-.13.616a.948.948 0 0 1-.239.355.933.933 0 0 1-.656.26c-.168 0-.217-.014-.659-.172a38.453 38.453 0 0 0-.468-.167 36.904 36.904 0 0 0-.467-.166 50.535 50.535 0 0 0-.524-.187.448.448 0 0 0-.181-.038.402.402 0 0 0-.238.045c-.07.035-.112.07-.218.19a8.034 8.034 0 0 0-1.6 2.76.636.636 0 0 0-.052.219.43.43 0 0 0 .05.238c.035.074.082.122.296.301l.437.369.638.538c.281.236.327.28.397.377.227.316.232.76.013 1.084-.07.104-.11.142-.383.372L.84 9.53l-.437.368c-.272.228-.316.272-.352.348a.425.425 0 0 0-.05.24.665.665 0 0 0 .055.23 8.031 8.031 0 0 0 1.597 2.748c.106.12.147.155.218.19.082.04.13.05.238.045.088-.004.095-.006.249-.061a55.819 55.819 0 0 1 .677-.242 44.512 44.512 0 0 1 .469-.167 38.457 38.457 0 0 1 .475-.169c.177-.063.234-.077.347-.088a.974.974 0 0 1 .612.155c.038.025.104.081.148.125a.949.949 0 0 1 .276.556l.112.614.127.694c.115.635.117.641.175.73.034.051.098.112.15.142.079.047.11.055.488.123.213.039.57.08.864.099.225.015.772.015.995 0 .353-.023.66-.06 1-.123.293-.053.349-.075.448-.173a.49.49 0 0 0 .115-.186c.01-.03.036-.162.126-.66a161.539 161.539 0 0 1 .146-.8c.06-.334.114-.6.132-.65a.931.931 0 0 1 .233-.37c.2-.2.472-.3.75-.276.113.01.176.026.352.088l.242.086a31.022 31.022 0 0 1 .468.166 38.059 38.059 0 0 1 .456.163c.127.044.29.102.456.162.154.056.161.058.249.062a.427.427 0 0 0 .37-.145 8.033 8.033 0 0 0 1.687-2.851l.049-.138v-.104c0-.098-.001-.106-.026-.168-.042-.104-.078-.144-.302-.333a1255.36 1255.36 0 0 1-1.118-.945c-.278-.233-.312-.266-.385-.376a.957.957 0 0 1 .002-1.06c.07-.105.116-.15.426-.41a90.852 90.852 0 0 0 .47-.397 153.662 153.662 0 0 0 .589-.497c.213-.179.261-.227.297-.3a.438.438 0 0 0 .05-.239.611.611 0 0 0-.052-.218 8.117 8.117 0 0 0-1.6-2.76c-.107-.12-.148-.156-.219-.191a.401.401 0 0 0-.238-.045.453.453 0 0 0-.181.038l-.234.084a50.693 50.693 0 0 0-.524.186 39.72 39.72 0 0 0-.455.162 64.2 64.2 0 0 0-.235.083c-.461.166-.501.176-.673.176a.935.935 0 0 1-.65-.255.907.907 0 0 1-.237-.348c-.037-.093-.065-.228-.148-.695l-.068-.368-.079-.432c-.09-.498-.116-.63-.126-.66A.483.483 0 0 0 9.54.193a6.33 6.33 0 0 0-.63-.117 11.67 11.67 0 0 0-.68-.067A9.424 9.424 0 0 0 7.762 0zm.015 4.392a3.718 3.718 0 0 1 3.719 3.719 3.718 3.718 0 0 1-3.719 3.718A3.718 3.718 0 0 1 4.06 8.111a3.718 3.718 0 0 1 3.718-3.719z"/>
</svg>