<svg width="85.039" height="85.233" viewBox="0 0 22.5 22.551" xml:space="preserve"
  xmlns="http://www.w3.org/2000/svg">
  <path style="fill:#fbfbfb;fill-opacity:1;stroke:none;stroke-width:2.8;stroke-dasharray:none" d="M55.025 21.627c-1.123.036-2.256.253-3.435.655-1.678.571-2.944 1.366-4.242 2.665-1.299 1.298-2.093 2.563-2.665 4.241-.886 2.602-.886 4.813 0 7.414.575 1.688 1.367 2.946 2.67 4.242 1.307 1.3 2.577 2.1 4.237 2.664 2.6.886 4.812.886 7.413 0 1.61-.548 2.924-1.366 4.18-2.6 1.516-1.49 2.458-3.113 3.04-5.241.272-.992.39-3.622.21-4.64-.201-1.126-.897-2.968-1.512-4.003-.784-1.317-2.437-2.97-3.754-3.754-1.095-.651-2.922-1.322-4.124-1.514a10.581 10.581 0 0 0-2.018-.129zm.306 2.05c4.237 0 7.94 2.913 8.956 7.046.3 1.216.292 3.143-.017 4.352-1.078 4.213-4.68 7.038-8.974 7.038a9.174 9.174 0 0 1-7.468-3.8c2.41-1.688 7.408-5.319 7.408-5.416 0-.097-5.01-3.736-7.416-5.42a9.432 9.432 0 0 1 3.7-3.005c1.193-.547 2.38-.794 3.81-.794zm.05 2.068a1.448 1.448 0 0 0-.832.217c-1.3.793-.758 2.776.76 2.776.487 0 .617-.059 1.026-.467.382-.383.467-.553.467-.934 0-.257-.106-.64-.236-.852-.279-.457-.72-.716-1.185-.74zm3.98 1.551c-1.143-.009-1.855 1.335-1.21 2.284.382.563.764.746 1.419.681.754-.075 1.33-.694 1.328-1.43 0-.305-.095-.658-.233-.868-.31-.47-.684-.661-1.304-.667zm1.654 4.124a2.38 2.38 0 0 0-.233.012c-.77.076-1.33.693-1.33 1.463 0 .77.56 1.387 1.33 1.463.314.031.663-.013.836-.104.422-.223.847-.905.847-1.359 0-.212-.123-.57-.274-.794-.325-.48-.66-.681-1.176-.68zm-1.679 4.097c-.517-.001-.85.2-1.185.693-.644.948.065 2.289 1.21 2.287.927-.002 1.526-.6 1.534-1.537.003-.416-.071-.596-.392-.946-.314-.342-.506-.443-.933-.485a2.407 2.407 0 0 0-.234-.012zm-4.028 1.535c-.463 0-.631.068-.99.396-.342.314-.442.507-.485.934-.064.65.12 1.037.67 1.407 1.007.68 2.3-.084 2.3-1.36 0-.352-.095-.536-.468-.91-.41-.408-.539-.467-1.027-.467z" transform="translate(-44.019 -21.622)"/>
</svg>