<svg width="59.081" height="59.08" viewBox="0 0 15.632 15.632" xml:space="preserve"
  xmlns="http://www.w3.org/2000/svg">
  <path style="fill:#f8f8f8;stroke-width:1;fill-opacity:1" d="M1.646.186c.106-.05.388-.06 1.672-.064.85-.003 1.613.008 1.695.022.22.04.392.16.495.349a.908.908 0 0 1 .096.278c.008.07.01.596.006 1.167-.007.9-.017 1.042-.07 1.072-.034.018-1 .034-2.145.035-1.594 0-2.096-.01-2.134-.049-.069-.068-.076-2.11-.008-2.34a.787.787 0 0 1 .393-.47Zm-.31 4.358c.034-.01.982-.02 2.105-.021 1.735-.003 2.05.006 2.1.056.05.05.061.4.073 2.293.008 1.23.027 2.315.044 2.412a2.236 2.236 0 0 0 1.725 1.79 2.234 2.234 0 0 0 1.567-.266c.21-.12.64-.537.737-.714.128-.23.23-.497.283-.734.04-.178.053-.8.055-2.477.003-1.944.011-2.248.064-2.3.053-.054.331-.062 2.087-.064 1.113 0 2.064.01 2.112.025.076.024.09.038.114.114.038.12.024 4.558-.015 4.921a6.72 6.72 0 0 1-1.264 3.264 7.36 7.36 0 0 1-1.38 1.382 6.581 6.581 0 0 1-2.998 1.236c-.444.068-1.37.066-1.847-.005a6.608 6.608 0 0 1-4.52-2.836 6.614 6.614 0 0 1-1.13-3.147c-.04-.42-.055-4.69-.017-4.813.031-.1.023-.092.104-.116ZM10.433.196c.124-.065.283-.071 1.743-.074 1.13-.002 1.648.011 1.746.045a.79.79 0 0 1 .453.46c.068.213.067 2.3-.002 2.368-.04.04-.507.051-2.158.051-1.338 0-2.121-.014-2.147-.04-.053-.053-.059-2.223-.006-2.388a.787.787 0 0 1 .37-.422z"/>
</svg>