<svg width="60.724" height="66.932" viewBox="0 0 16.066 17.709" xml:space="preserve"
  xmlns="http://www.w3.org/2000/svg">
  <path style="baseline-shift:baseline;display:inline;overflow:visible;vector-effect:none;fill:#fbfbfb;stroke-width:1;enable-background:accumulate;stop-color:#000;stop-opacity:1" d="M104.79 25.096v2.426c2.81-.024 3.846-.046 6.657-.067a.551.551 0 0 1 .552.548v8.156h3.011c-.039-3.147.144-6.266-.178-9.31-.275-.984-1.443-1.723-2.477-1.615h-.005a.555.555 0 0 1-.076.005c-3.076-.095-4.392-.098-7.485-.143zm1.628 4.562v3.887c.11 2.032-.118 3.637.252 5.453.188.458.315.805.606 1.057.304.265.875.514 2.116.56 3.655.044 3.537.087 7.19.13.288.001.53.234.543.522l.07 1.538 3.66-3.293-3.676-3.303c-.013.51-.024 1.022-.035 1.531a.553.553 0 0 1-.544.537c-3.46.027-3.15.056-6.612.083a.551.551 0 0 1-.552-.548v-8.154z" transform="translate(-104.789 -25.096)"/>
</svg>