<svg width="71.093" height="71.093" viewBox="0 0 18.81 18.81" xml:space="preserve"
  xmlns="http://www.w3.org/2000/svg">
  <g style="stroke-width:.182474">
    <path style="font-weight:700;font-size:1.14653px;line-height:1.25;font-family:arial;-inkscape-font-specification:arial;fill:#f9f9f9;stroke-width:.0482795" d="M24.651 109.588v-.79h.165v.79zm.8 0-.345-.608q.01.089.01.142v.466h-.146v-.79h.188l.35.613q-.01-.084-.01-.154v-.458h.146v.789z" aria-label="IN" transform="matrix(5.51111 0 0 5.44957 -129.186 -588.247)"/>
    <path style="fill:#fbfbfb;fill-opacity:1;stroke-width:.182474" d="M24.093 111.359a.25.25 0 0 1 .072-.165l.04-.041h.95c.827 0 .953.003.982.023.035.024.065.106.065.178v.041h-2.109zm.712-.386c-.029-.023-.036-.047-.041-.13l-.007-.1h-.502c-.496 0-.504 0-.58-.036a.466.466 0 0 1-.132-.1c-.105-.123-.102-.093-.102-1.176v-1.172l.047-.093a.434.434 0 0 1 .225-.211 91.656 91.656 0 0 1 2.855 0c.09.02.186.105.24.21l.046.094v1.172c0 1.083.003 1.053-.102 1.176a.466.466 0 0 1-.132.1c-.076.035-.084.036-.581.036h-.505v.09c0 .075-.006.094-.04.128l-.04.04h-.307c-.277 0-.31-.002-.342-.028zm1.754-.388c.08-.081.016-.236-.1-.236-.068 0-.136.07-.136.143 0 .078.054.13.137.13.045 0 .072-.01.099-.037zm-.002-.404.04-.047v-1.851l-.045-.045-.045-.044h-2.715l-.043.037-.043.036-.004 1.032-.004.834.04.047.04.047h2.74z" transform="matrix(5.51111 0 0 5.44957 -129.186 -588.247)"/>
  </g>
</svg>