<svg width="71.093" height="71.093" viewBox="0 0 18.81 18.81" xml:space="preserve"
  xmlns="http://www.w3.org/2000/svg">
  <g style="stroke-width:.182474">
    <path style="font-weight:700;font-size:1.14653px;line-height:1.25;font-family:arial;-inkscape-font-specification:arial;fill:#f9f9f9;stroke-width:.0482795" d="M28.835 109.19q0 .123-.05.216-.048.094-.138.144-.091.049-.212.049-.186 0-.292-.11-.105-.11-.105-.3t.105-.296q.105-.106.293-.106t.293.108q.106.107.106.295zm-.169 0q0-.128-.06-.2-.06-.073-.17-.073-.11 0-.171.072-.06.072-.06.2 0 .13.06.205.063.075.17.075.11 0 .17-.073.061-.073.061-.206zm.622.409q-.163 0-.25-.08-.086-.08-.086-.227v-.493h.165v.48q0 .094.044.142.045.048.131.048.088 0 .136-.05.048-.05.048-.146v-.474h.165v.485q0 .15-.093.232-.093.083-.26.083zm.856-.673v.662h-.166v-.662h-.254v-.127h.675v.127z" aria-label="OUT" transform="matrix(5.51111 0 0 5.44957 -151.62 -588.247)"/>
    <path style="fill:#fbfbfb;fill-opacity:1;stroke-width:.182474" d="M28.164 111.359a.25.25 0 0 1 .072-.165l.04-.041h.95c.827 0 .953.003.982.023.035.024.064.106.065.178v.041h-2.109zm.712-.386c-.029-.023-.036-.047-.042-.13l-.006-.1h-.503c-.495 0-.503 0-.579-.036a.466.466 0 0 1-.132-.1c-.105-.123-.102-.093-.102-1.176v-1.172l.047-.093a.434.434 0 0 1 .225-.211 91.656 91.656 0 0 1 2.855 0c.09.02.186.105.24.21l.046.094v1.172c0 1.083.003 1.053-.102 1.176a.466.466 0 0 1-.132.1c-.076.035-.084.036-.581.036h-.505v.09c0 .075-.006.094-.04.128l-.04.04h-.307c-.277 0-.31-.002-.342-.028zm1.754-.388c.08-.081.015-.236-.1-.236-.068 0-.136.07-.136.143 0 .078.054.13.137.13.045 0 .071-.01.099-.037zm-.002-.404.04-.047v-1.851l-.045-.045-.045-.044h-2.716l-.042.037-.043.036-.004 1.032-.004.834.04.047.04.047h2.74z" transform="matrix(5.51111 0 0 5.44957 -151.62 -588.247)"/>
  </g>
</svg>