<svg width="71.093" height="71.093" viewBox="0 0 18.81 18.81" xml:space="preserve"
  xmlns="http://www.w3.org/2000/svg">
  <g style="stroke-width:.182474">
    <path style="fill:#fbfbfb;fill-opacity:1;stroke-width:.182474" d="M28.164 111.262a.25.25 0 0 1 .072-.165l.04-.041h.95c.827 0 .953.003.982.023.035.024.064.106.065.178v.04h-2.109zm.712-.192c-.029-.023-.036-.047-.042-.13l-.006-.1h-.503c-.495 0-.503 0-.579-.036a.465.465 0 0 1-.132-.1c-.105-.123-.102-.19-.102-1.273v-1.27l.047-.092a.434.434 0 0 1 .225-.211 91.796 91.796 0 0 1 2.855 0c.09.02.186.105.24.21l.046.094v1.269c0 1.083.003 1.15-.102 1.273a.467.467 0 0 1-.132.1c-.076.035-.084.036-.581.036h-.505v.09c0 .075-.006.094-.04.128l-.04.04h-.307c-.277 0-.31-.002-.342-.028zm1.754-.388c.08-.08.015-.236-.1-.236-.068 0-.136.07-.136.143 0 .078.054.13.137.13.045 0 .071-.01.099-.037zm-.002-.404.04-.047v-2.045l-.045-.045-.045-.044h-2.716l-.042.037-.043.036-.004 1.129-.004.931.04.047.04.047h2.74zm-1.18-.737c-.044-.014-.048-.028-.048-.168v-.125l.022-.023.023-.022h.105c.17 0 .186.016.183.19-.002.108-.002.11-.023.13-.021.021-.022.022-.13.023a.756.756 0 0 1-.132-.006zm-1.327-.034c-.02-.02-.02-.02-.02-.131 0-.167.006-.173.16-.173.151 0 .159.008.159.165 0 .108-.008.142-.035.153-.043.005-.085.006-.128.005-.113 0-.117 0-.136-.02zm.647-.004-.022-.024.002-.115c.002-.114.003-.115.024-.136l.02-.021h.118c.114 0 .117 0 .137.019.035.033.042.054.042.14a.588.588 0 0 1-.008.107c-.014.049-.025.053-.166.053h-.124zm-.647-.488c-.02-.019-.02-.02-.02-.131 0-.166.006-.173.16-.173.151 0 .159.008.159.165 0 .109-.008.142-.035.153-.043.005-.085.006-.128.005-.113 0-.117 0-.136-.019zm.647-.004-.022-.023.002-.115c.002-.114.003-.116.024-.137.02-.02.023-.021.124-.024.166-.004.17 0 .17.165 0 .106-.002.118-.016.137l-.016.02h-.243zm.652.007-.02-.016v-.246l.023-.023.023-.023.114.002c.112.003.114.003.135.024l.02.021v.118c0 .115 0 .12-.018.139-.018.02-.02.02-.138.02-.109 0-.12-.002-.139-.017zm.646-.003-.02-.02.002-.123.002-.123.021-.019c.02-.018.027-.018.123-.018.165 0 .171.006.171.165 0 .108-.007.142-.034.153-.042.005-.085.006-.128.005-.114 0-.117-.001-.137-.02z" transform="matrix(5.51105 0 0 5.4495 -151.62 -587.71)"/>
  </g>
</svg>