<svg width="79.464" height="79.482" viewBox="0 0 21.025 21.03" xml:space="preserve"
   xmlns="http://www.w3.org/2000/svg">
   <path style="fill:#f8f8f8;fill-opacity:1;stroke-width:.999999" d="M5.297 16.894c-1.143-1.364-1.862-2.859-2.19-4.553a9.834 9.834 0 0 1 1.376-7.142 9.19 9.19 0 0 1 1.362-1.672A9.04 9.04 0 0 1 8.4 1.701c1.36-.663 2.788-.988 4.359-.992a9.9 9.9 0 0 1 4.717 1.17c.46.248.6.415.617.734.014.287-.106.568-.348.81-.189.188-.348.273-.693.369-1.13.313-2.064.789-2.927 1.488-1.461 1.183-2.382 2.794-2.595 4.54-.06.488-.017 1.298.1 1.9.258 1.339 1.06 2.727 2.158 3.737a7.815 7.815 0 0 0 3.048 1.755c.519.162.645.23.849.458.201.226.303.485.295.748-.013.388-.144.529-.794.855a9.68 9.68 0 0 1-4.388 1.048 9.911 9.911 0 0 1-5.567-1.7c-.524-.359-.733-.534-1.3-1.09-.306-.3-.59-.586-.634-.637zm2.175-.344a8.058 8.058 0 0 0 6.35 1.921c.281-.036.914-.159.914-.177 0-.007-.13-.084-.29-.172-.325-.18-.844-.521-1.238-.814-.377-.28-1.382-1.285-1.697-1.697-2.198-2.878-2.39-6.514-.499-9.495.83-1.307 2.043-2.43 3.468-3.208.161-.088.294-.165.294-.171 0-.02-.699-.151-.987-.186-2.588-.313-5.147.58-6.836 2.386-.909.972-1.456 1.895-1.849 3.121-.975 3.041-.035 6.411 2.37 8.492z"/>
</svg>