<svg width="27.655" height="27.782" viewBox="0 0 7.317 7.351" xml:space="preserve"
   xmlns="http://www.w3.org/2000/svg">
   <path style="fill:#f8f8f8;fill-opacity:1;stroke-width:1" d="M1.243 7.297a.666.666 0 0 1-.546-.452l-.028-.08V.543L.697.462a.676.676 0 0 1 .33-.383c.162-.08-.022-.073 1.972-.076L4.78 0l.928.928.929.929v4.832l-.331.322-.331-.003-.003-3.521-.002-.829h-.685c-.786 0-1.299-.018-1.299-.018l-.005-1.258-.003-.715H1.33v5.974h5.31c0 .332-.137.667-.503.667l-3.161-.001a93.812 93.812 0 0 1-1.733-.01zM5.83 1.989c0-.001-.266-.27-.592-.595L4.647.802v1.189h.592c.326 0 .592 0 .592-.002z"/>
</svg>