<svg width="81.675" height="82.938" viewBox="0 0 21.61 21.944" xml:space="preserve"
  xmlns="http://www.w3.org/2000/svg">
  <path style="fill:#fbfbfb;fill-opacity:1;stroke-width:.738523" d="M119.91 122.71a.607.607 0 0 0-.336.09 2.98 2.98 0 0 0-.392.348c-.366.36-1.015 1.042-2.27 2.364l-2.033 2.14a.278.278 0 0 0-.076.192l.008 5.066c.004 2.826-.003 4.156.058 4.854.031.348.072.557.196.728.123.171.283.222.392.277.357.182.804.15 7.4.133 3.328-.009 5.089-.012 6.046-.03.478-.01.755-.022.939-.042.184-.02.31-.061.393-.117.042-.029.092-.056.158-.11a.67.67 0 0 0 .181-.234c.091-.198.12-.44.145-.908.05-.934.043-2.778.043-6.666 0-3.45 0-5.225-.018-6.17-.009-.473-.02-.736-.04-.914a.963.963 0 0 0-.116-.375c-.055-.09-.125-.237-.293-.336-.168-.1-.366-.133-.703-.16-.675-.055-1.955-.059-4.643-.078a1177.241 1177.241 0 0 1-4.63-.045c-.133-.002-.238-.002-.311-.004l-.086-.002c-.016 0-.025-.002-.01 0zm.752 1.513h8.64v13.236h-13.029v-8.638h1.778c.981 0 1.493 0 1.8-.02.154-.01.26-.024.36-.057a.64.64 0 0 0 .232-.144.641.641 0 0 0 .147-.237c.032-.1.043-.208.053-.367.019-.318.019-.857.019-1.89zm-1.475 1.048c.007.249.014.529.014.868v1.22h-1.15c-.327 0-.597-.006-.836-.011a104.468 104.468 0 0 1 1.97-2.074l.003-.003zm5.184 2.088c-.823 0-1.255.001-1.525.022-.135.01-.234.023-.328.056a.67.67 0 0 0-.22.14.721.721 0 0 0-.02 1.023.635.635 0 0 0 .22.142c.095.034.195.047.332.057.274.02.715.021 1.555.021h1.771a.278.278 0 0 0 .219-.105l.145-.184c.106-.135.203-.279.193-.472-.01-.194-.123-.326-.242-.446v-.002l-.17-.17a.278.278 0 0 0-.197-.082zm-4.898 3.135a.278.278 0 0 0-.198.082l-.17.172c-.132.133-.233.295-.244.484-.01.19.08.372.211.502a.669.669 0 0 0 .276.153c.117.029.255.04.486.048.463.02 1.3.02 2.932.02 1.512 0 2.354-.001 2.841-.018a4.1 4.1 0 0 0 .518-.039.607.607 0 0 0 .31-.129c.2-.18.246-.446.2-.671a.71.71 0 0 0-.446-.54c-.09-.032-.077-.017-.097-.02a1.203 1.203 0 0 0-.07-.003l-.217-.008c-.18-.005-.431-.01-.737-.014-.61-.008-1.438-.012-2.336-.013zm3.273 3.139c-1.591-.002-2.402-.003-2.853.015a2.42 2.42 0 0 0-.48.051.757.757 0 0 0-.27.133c-.335.263-.389.78-.07 1.07a.602.602 0 0 0 .31.133c.12.02.277.029.525.035.497.014 1.358.01 2.922.002l3.441-.017a.278.278 0 0 0 .25-.158l.086-.184c.178-.372.036-.836-.353-.992-.068-.028-.075-.022-.1-.026l-.08-.008a36.019 36.019 0 0 0-.982-.033c-.62-.012-1.452-.02-2.346-.021z" transform="translate(-155.449 -166.155) scale(1.35405)"/>
</svg>