<svg width="17.235" height="16.584" viewBox="0 0 4.56 4.388" xml:space="preserve"
  xmlns="http://www.w3.org/2000/svg">
  <path style="fill:#f8f8f8;stroke-width:2.765;stroke-linecap:square;stroke-linejoin:round;stroke-miterlimit:5.2;paint-order:stroke fill markers" d="M22.175 74.25h.474c.13 0 .236.105.236.236v2.367c0 .13-.105.236-.236.236h-.474a.235.235 0 0 1-.236-.236v-2.367c0-.13.105-.236.236-.236zM24.068 74.25h.474c.13 0 .236.105.236.236v2.367c0 .13-.105.236-.236.236h-.474a.235.235 0 0 1-.236-.236v-2.367c0-.13.105-.236.236-.236z" transform="translate(-21.08 -73.476)"/>
</svg>