<svg width="79.464" height="79.482" viewBox="0 0 21.025 21.03" xml:space="preserve"
  xmlns="http://www.w3.org/2000/svg">
  <path style="fill:#f8f8f8;fill-opacity:1" d="m152.645 65.87-.102.019-.186.054-.01.002a2.255 2.255 0 0 0-1.505 1.51l-.057.186a.356.356 0 0 0-.02.107V85.02c.001.035.008.07.02.103l.057.188c.257.823.937 1.44 1.76 1.564a.342.342 0 0 0 .052.002l.006.002h.041l.006.002.148.002c.126.002.302.002.528.004.451.002 1.096.006 1.885.008 1.577.003 3.732.004 6.086.004 4.07-.002 6.211-.003 7.355-.01 1.143-.007 1.306-.012 1.455-.057a2.274 2.274 0 0 0 1.547-1.52v-.001l.06-.188-.002.002a.352.352 0 0 0 .02-.107V76.395c0-8.252.016-8.603-.06-8.88a2.264 2.264 0 0 0-1.522-1.568h-.002l-.188-.06.002.002a.353.353 0 0 0-.109-.02h-8.633zm1.57 1.964h1.324v10.254h1.264V84.93L155 84.928c-.65 0-1.197-.003-1.586-.008-.193-.002-.346-.007-.455-.01l-.094-.002a.472.472 0 0 1-.058-.047.52.52 0 0 1-.051-.066l-.004-.004v-.039c-.003-.063-.004-.17-.006-.315-.004-.288-.008-.736-.01-1.386-.005-1.3-.006-3.414-.006-6.698 0-4.065 0-6.174.006-7.275.003-.55.01-.848.015-1.004l.006-.119c.004 0 .027-.038.055-.062a.395.395 0 0 1 .055-.04l.004-.002.058-.003.002-.002c.068-.003.167-.004.291-.006.248-.004.59-.006.993-.006zm5.749 0H162.689v10.254h1.11V84.93h-5.04v-6.842c.226-.032 1.205 0 1.205 0zm6.9 0h1.478c.395 0 .736.001.984.006.123.002.225.006.297.01l.06.002c-.012-.002.015.008.044.035.033.03.064.072.07.086 0 .002.003.004.004.006l.025.054v16.7l-.027.058v.002l-.002.002a.422.422 0 0 1-.12.117 19.53 19.53 0 0 1-.478.012c-.355.005-.897.006-1.662.006h-1.787v-6.842c.191-.033.982.082 1.114 0z" transform="translate(-150.765 -65.87)"/>
</svg>