<svg width="79.42" height="79.42" viewBox="0 0 21.013 21.013" xml:space="preserve"
  xmlns="http://www.w3.org/2000/svg">
  <g style="fill:#f8f8f8;fill-opacity:1;stroke-width:1.19046">
    <path style="fill:#f8f8f8;fill-opacity:1;stroke-width:1.19046;stroke-linecap:round" d="M18.665 10.503H2.348m0-1.271a1.27 1.27 0 0 0-1.27 1.272 1.27 1.27 0 0 0 1.27 1.27h16.316a1.27 1.27 0 0 0 1.272-1.27 1.27 1.27 0 0 0-1.272-1.272z" transform="matrix(.70561 0 0 1 3.093 .004)"/>
  </g>
  <g style="fill:#f8f8f8;fill-opacity:1;stroke-width:1.19046">
    <path style="fill:#f8f8f8;fill-opacity:1;stroke-width:1.19046;stroke-linecap:round" d="M18.665 10.503H2.348m0-1.271a1.27 1.27 0 0 0-1.27 1.272 1.27 1.27 0 0 0 1.27 1.27h16.316a1.27 1.27 0 0 0 1.272-1.27 1.27 1.27 0 0 0-1.272-1.272z" transform="matrix(0 .70561 -1 0 21.01 3.093)"/>
  </g>
</svg>