<svg width="81.675" height="82.938" viewBox="0 0 21.61 21.944" xml:space="preserve"
   xmlns="http://www.w3.org/2000/svg">
   <path style="fill:#f8f8f8;fill-opacity:.984314;stroke-width:.805263" d="M105.055 174.047c-.772-.13-1.54.752-1.121 1.512a.187.187 0 0 0 .011.02c.189.264.414.464.63.675-3.415.382-6.37 3.223-6.77 6.658-.464 3.13 1.215 6.398 4.021 7.854 2.998 1.661 7.032.985 9.313-1.58 2.377-2.477 2.718-6.544.838-9.405l-.002-.004a7.808 7.808 0 0 0-1.045-1.29c-.357-.395-.905-.38-1.287-.145-.383.235-.644.715-.454 1.21a.187.187 0 0 0 .018.038c.531.804 1.234 1.47 1.496 2.336a.187.187 0 0 0 .006.015c1.008 2.475-.094 5.585-2.437 6.871a.187.187 0 0 0-.008.004c-2.357 1.43-5.73.73-7.313-1.529a.187.187 0 0 0-.006-.008c-1.715-2.194-1.366-5.668.736-7.492a.187.187 0 0 0 .004-.004c.865-.802 1.993-1.289 3.163-1.432-.13.122-.242.241-.377.371-.269.258-.528.552-.643.944a.187.187 0 0 0-.006.027c-.144 1.037 1.361 1.605 1.926.727l-.022.025c.788-.844 1.723-1.604 2.455-2.55a.187.187 0 0 0 .022-.038c.158-.348.085-.692-.076-.955-.162-.263-.401-.47-.604-.648l.006.004c-.703-.664-1.35-1.447-2.125-2.075a.187.187 0 0 0-.021-.015.956.956 0 0 0-.328-.121z" transform="matrix(1.24184 0 0 1.24184 -120.155 -216.102)"/>
</svg>