<svg width="81.675" height="82.938" viewBox="0 0 21.61 21.944" xml:space="preserve"
   xmlns="http://www.w3.org/2000/svg">
   <path style="fill:#f7f7f7;fill-opacity:.984314;stroke-width:1.00001" d="M2 21.878a.833.833 0 0 1-.377-.333l-.086-.14v-4.428c0-3.859.008-4.464.06-4.714.136-.66.143-.674 1.58-2.945.752-1.19 1.368-2.181 1.368-2.203 0-.085.374-.416.59-.522.225-.11.239-.112.952-.123l.723-.012.616.754.615.753-1.243.012-1.244.011-1.205 2.216c-.663 1.22-1.217 2.255-1.23 2.302l-.026.086 7.683-.01c7.652-.01 7.684-.01 7.693-.086.006-.043-.53-1.056-1.206-2.285l-1.216-2.208-1.24-.01c-.682-.005-1.24-.019-1.24-.03 0-.01.278-.353.618-.763l.617-.746.706.014c.623.013.727.023.884.095.21.097.492.347.608.54.046.076.678 1.081 1.405 2.233.727 1.152 1.35 2.163 1.386 2.246.035.084.109.323.165.533l.1.38.013 4.379c.01 3.06 0 4.42-.028 4.519a.776.776 0 0 1-.385.45c-.144.074-.284.075-8.857.073-5.342-.001-8.744-.017-8.8-.039zm11.293-6.17a.898.898 0 0 0 .428-.532c.054-.2-.015-.449-.177-.638-.242-.283-.16-.275-2.813-.263l-2.36.011-.177.123c-.496.345-.421 1.05.139 1.309.143.066.295.07 2.472.071 2.291 0 2.322 0 2.488-.08zM8.499 7.272a342.993 342.993 0 0 1-2.31-2.797c-.008-.017.536-.03 1.208-.03h1.221V.027h4.493v4.415l1.16.01 1.159.01-.602.724-2.316 2.787-1.714 2.065z"/>
</svg>