<svg width="78.263" height="78.263" viewBox="0 0 20.707 20.707" xml:space="preserve"
  xmlns="http://www.w3.org/2000/svg">
  <path style="font-size:24.2232px;line-height:1.25;font-family:&quot;Ubuntu Mono&quot;;-inkscape-font-specification:&quot;Ubuntu Mono&quot;;fill:#fbfbfb;stroke-width:.264583" d="M118.965 156.719c-.754 0-1.397.08-1.936.25a.353.353 0 0 0-.004 0c-.519.168-.953.43-1.283.785l-.002.002a2.933 2.933 0 0 0-.703 1.232.353.353 0 0 0-.002.012c-.12.468-.178.998-.178 1.592v3.726c0 .21-.032.418-.101.633a.353.353 0 0 0-.004.014 1.684 1.684 0 0 1-.256.537.353.353 0 0 0-.004.006c-.095.14-.22.253-.381.352a1.15 1.15 0 0 1-.54.119h-.948a.353.353 0 0 0-.354.353v1.483a.353.353 0 0 0 .354.353h.972c.215 0 .37.047.496.13a.353.353 0 0 0 .012.005c.162.097.283.216.381.371a.353.353 0 0 0 .02.026c.111.144.193.315.246.521a.353.353 0 0 0 .008.027c.067.198.1.39.1.58v3.727c0 .594.057 1.123.177 1.592a.353.353 0 0 0 .002.012c.14.48.377.896.703 1.232l.002.002c.33.355.764.617 1.283.785a.353.353 0 0 0 .004 0c.54.17 1.183.248 1.936.248h1.924a.353.353 0 0 0 .353-.353v-1.504a.353.353 0 0 0-.353-.354h-1.996c-.614 0-.98-.137-1.17-.332-.177-.182-.329-.623-.329-1.351v-3.194c0-1.01-.157-1.813-.527-2.408a3.299 3.299 0 0 0-.764-.846c.278-.207.539-.455.758-.787a.353.353 0 0 0 .002-.004c.378-.588.532-1.414.532-2.484v-3.193c0-.727.143-1.173.306-1.354.19-.193.558-.33 1.168-.33h2.02a.353.353 0 0 0 .353-.354v-1.505a.353.353 0 0 0-.353-.354zm5.39 0a.353.353 0 0 0-.353.353v1.506a.353.353 0 0 0 .353.354h1.997c.613 0 .982.137 1.171.332.177.182.329.623.329 1.351v3.194c0 1.01.157 1.813.527 2.408.221.355.484.624.766.847-.28.213-.54.467-.76.81-.382.575-.533 1.394-.533 2.464v3.193c0 .728-.152 1.17-.329 1.352a.353.353 0 0 0-.006.008c-.17.186-.529.324-1.142.324h-2.02a.353.353 0 0 0-.353.354v1.503a.353.353 0 0 0 .353.354h1.926c.752 0 1.385-.078 1.91-.248.53-.167.973-.425 1.305-.78l.002-.001c.346-.338.586-.762.71-1.248.138-.47.202-1.001.202-1.594v-3.727c0-.213.027-.418.08-.617.07-.213.155-.392.258-.543l.002-.002a1.2 1.2 0 0 1 .383-.36.353.353 0 0 0 .008-.003.994.994 0 0 1 .531-.135h.951a.353.353 0 0 0 .354-.354v-1.482a.353.353 0 0 0-.354-.353h-.974a.991.991 0 0 1-.524-.133 1.641 1.641 0 0 1-.394-.364 2.03 2.03 0 0 1-.237-.535v-.002a2.523 2.523 0 0 1-.084-.627v-3.726c0-.593-.064-1.122-.2-1.592v-.002a2.641 2.641 0 0 0-.712-1.248c-.332-.356-.775-.614-1.306-.781-.525-.17-1.158-.25-1.91-.25z" transform="translate(-112.27 -156.719)"/>
</svg>