<svg width="79.42" height="79.392" viewBox="0 0 21.013 21.006" xml:space="preserve"
  xmlns="http://www.w3.org/2000/svg">
  <path style="fill:#fbfbfb;fill-opacity:1;stroke-width:1" d="M109.352 33.976c.13-.395.366-.667.725-.838l.226-.107 4.498-.01 4.497-.012 3.07-3.07c1.69-1.688 3.071-3.088 3.071-3.11 0-.024-.436-.477-.97-1.007-.532-.531-.995-1.025-1.026-1.097-.128-.294-.035-.603.243-.81.115-.084.145-.085 3.114-.096 3.342-.012 3.17-.026 3.396.27l.11.145v3.05c0 3.03 0 3.051-.085 3.166-.199.268-.56.382-.81.256-.05-.025-.538-.492-1.086-1.037l-.996-.991-3.379 3.371c-2.975 2.97-3.405 3.384-3.604 3.47l-.226.1h-9.817l-.226-.108a1.33 1.33 0 0 1-.647-.644c-.123-.266-.157-.656-.078-.891zm13.243 3.131.934-.934 1.9 1.9 1.9 1.9.996-.992c.548-.546 1.036-1.012 1.086-1.037.25-.127.611-.013.81.255.085.115.086.145.097 3.114.012 3.342.026 3.17-.27 3.396l-.146.11h-3.05c-3.03 0-3.05 0-3.166-.085-.268-.199-.382-.56-.255-.81.025-.05.491-.539 1.037-1.086l.991-.997-1.9-1.9-1.899-1.9z" transform="translate(-109.31 -23.814)"/>
</svg>