<svg width="79.464" height="79.482" viewBox="0 0 21.025 21.03" xml:space="preserve"
   xmlns="http://www.w3.org/2000/svg">
   <path style="fill:#f8f8f8;fill-opacity:1;stroke-width:.999999" d="M10.16 19.795a.98.98 0 0 1-.516-.532c-.06-.16-.062-.202-.054-.843.009-.675.009-.676.086-.822.106-.2.217-.32.377-.407a.968.968 0 0 1 .917 0c.16.086.272.207.378.407.077.146.077.147.086.822.008.638.005.684-.054.843-.084.227-.314.46-.54.542a.93.93 0 0 1-.68-.01zm-6.03-2.314c-.289-.116-.442-.26-.563-.528a.781.781 0 0 1-.062-.36c0-.368.06-.468.639-1.04.317-.313.528-.5.615-.542.627-.306 1.356.138 1.35.823-.003.375-.095.52-.702 1.112-.491.478-.629.563-.944.578a.702.702 0 0 1-.333-.043zm12.21.015a1.354 1.354 0 0 1-.238-.115c-.175-.109-1.019-.96-1.09-1.099-.346-.682.224-1.48.971-1.36.269.043.386.126.897.631.578.572.64.672.639 1.04-.001.381-.177.67-.51.833-.214.106-.476.133-.668.07zm-6.193-2.323c-1.643-.14-3.114-1.132-3.82-2.578a4.502 4.502 0 0 1-.483-2.095 4.546 4.546 0 0 1 1.365-3.29 4.683 4.683 0 0 1 2.5-1.31 5.627 5.627 0 0 1 1.546-.011c.98.163 1.85.611 2.558 1.32a4.552 4.552 0 0 1 1.365 3.288 4.49 4.49 0 0 1-.489 2.112 4.71 4.71 0 0 1-2.991 2.423 5.004 5.004 0 0 1-1.551.14zm.833-1.895c1.105-.18 1.984-1.002 2.265-2.121.085-.34.085-.953 0-1.292-.238-.946-.903-1.688-1.786-1.994a2.789 2.789 0 0 0-1.894 0c-.925.32-1.6 1.108-1.807 2.106a2.858 2.858 0 0 0 .407 2.077 2.804 2.804 0 0 0 2.815 1.224zm-9.247-1.91a.935.935 0 0 1-.515-1.186 1.03 1.03 0 0 1 .481-.518c.141-.064.172-.066.849-.066.702 0 .702 0 .862.075.708.332.713 1.323.007 1.68-.135.069-.156.07-.827.078-.677.007-.691.006-.857-.062zm16 .037a1.148 1.148 0 0 1-.244-.125.923.923 0 0 1 .124-1.607l.16-.075H19.178l.158.077a.914.914 0 0 1 .253 1.485c-.256.256-.347.278-1.121.275-.351-.001-.682-.015-.735-.03zM5.01 6.099c-.247-.05-.372-.14-.865-.63-.578-.575-.642-.68-.643-1.04 0-.258.059-.418.23-.626a.987.987 0 0 1 .57-.301c.16-.022.416.024.576.105.161.08 1.052.985 1.132 1.149A.93.93 0 0 1 5.343 6.1c-.165.032-.163.032-.332-.002zm10.647 0c-.487-.1-.824-.586-.737-1.061.016-.084.057-.21.092-.282.08-.164.97-1.069 1.131-1.15a.943.943 0 0 1 1.313.46c.049.107.063.189.063.363 0 .355-.068.466-.615 1.015-.248.25-.502.484-.564.522a.982.982 0 0 1-.683.134zm-5.334-2.162a.942.942 0 0 1-.629-.482L9.6 3.277l-.009-.675c-.008-.64-.006-.684.054-.842a1.02 1.02 0 0 1 .483-.523c.222-.1.567-.095.782.01a.992.992 0 0 1 .471.513c.06.157.062.202.054.842l-.01.675-.096.178a.939.939 0 0 1-1.004.482z"/>
</svg>