<svg width="90.751" height="77.561" viewBox="0 0 24.011 20.521" xml:space="preserve"
  xmlns="http://www.w3.org/2000/svg">
  <path style="fill:#fbfbfb;fill-opacity:1;stroke:none;stroke-width:2.8;stroke-dasharray:none" d="M55.025 21.627c-1.123.036-2.256.253-3.435.655-1.678.571-2.944 1.366-4.242 2.665-1.299 1.298-2.093 2.563-2.665 4.241-.886 2.602-.886 4.813 0 7.414.575 1.688 1.367 2.946 2.67 4.242 1.307 1.3 2.577 2.1 4.237 2.664 2.6.886 4.812.886 7.413 0 1.61-.548 2.924-1.366 4.18-2.6 1.516-1.49 2.458-3.113 3.04-5.241.272-.992.39-3.622.21-4.64-.201-1.126-.897-2.968-1.512-4.003-.784-1.317-2.437-2.97-3.754-3.754-1.095-.651-2.922-1.322-4.124-1.514a10.581 10.581 0 0 0-2.018-.129zm.306 2.05c4.237 0 7.94 2.913 8.956 7.046.3 1.216.292 3.143-.017 4.352-1.078 4.213-4.68 7.038-8.974 7.038a9.174 9.174 0 0 1-7.468-3.8c2.41-1.688 7.408-5.319 7.408-5.416 0-.097-5.01-3.736-7.416-5.42a9.432 9.432 0 0 1 3.7-3.005c1.193-.547 2.38-.794 3.81-.794zm.05 2.068a1.448 1.448 0 0 0-.832.217c-1.3.793-.758 2.776.76 2.776.487 0 .617-.059 1.026-.467.382-.383.467-.553.467-.934 0-.257-.106-.64-.236-.852-.279-.457-.72-.716-1.185-.74zm3.98 1.551c-1.143-.009-1.855 1.335-1.21 2.284.382.563.764.746 1.419.681.754-.075 1.33-.694 1.328-1.43 0-.305-.095-.658-.233-.868-.31-.47-.684-.661-1.304-.667zm1.654 4.124a2.38 2.38 0 0 0-.233.012c-.77.076-1.33.693-1.33 1.463 0 .77.56 1.387 1.33 1.463.314.031.663-.013.836-.104.422-.223.847-.905.847-1.359 0-.212-.123-.57-.274-.794-.325-.48-.66-.681-1.176-.68zm-1.679 4.097c-.517-.001-.85.2-1.185.693-.644.948.065 2.289 1.21 2.287.927-.002 1.526-.6 1.534-1.537.003-.416-.071-.596-.392-.946-.314-.342-.506-.443-.933-.485a2.407 2.407 0 0 0-.234-.012zm-4.028 1.535c-.463 0-.631.068-.99.396-.342.314-.442.507-.485.934-.064.65.12 1.037.67 1.407 1.007.68 2.3-.084 2.3-1.36 0-.352-.095-.536-.468-.91-.41-.408-.539-.467-1.027-.467z" transform="translate(-75.236 -22.963)"/>
  <path style="fill:#fbfbfb;fill-opacity:1;stroke-width:1" d="M75.278 39.585c.106-.455.458-.775.856-.775h.27v2.179c0 2.395.018 2.253-.287 2.253-.32 0-.652-.29-.797-.698-.076-.213-.086-.402-.084-1.518.002-.702.02-1.35.042-1.44zm5.301-.957h3.237V43.485h-6.474V38.628Zm-1.338-10.37c.324-1.852 1.355-3.3 2.724-3.831.571-.222 1.062-.248 4.537-.249h3.366v2.3l-3.577.02c-3.565.02-3.578.02-3.855.156-1.55.754-1.99 3.176-.847 4.656.251.325.448.487.839.69.172.09.663.103 4.672.133 4.457.033 4.483.034 4.856.169 1.206.436 2.09 1.394 2.6 2.814.565 1.576.48 3.28-.239 4.827a4.42 4.42 0 0 1-1.688 1.897c-.792.474-.59.453-4.461.476l-3.46.02v-2.312h3.178c1.84 0 3.297-.026 3.46-.06.415-.087.9-.42 1.19-.818 1.101-1.506.62-3.877-.926-4.573-.191-.086-.756-.102-4.744-.133l-4.527-.035-.327-.142c-1.345-.583-2.277-1.791-2.7-3.5-.135-.547-.174-1.917-.071-2.506zm14.803-5.295h3.237V27.82h-6.474V22.963zm4.383.195c.296.031.515.2.686.527.112.214.115.25.129 1.585.013 1.324.01 1.375-.094 1.636-.161.403-.403.625-.717.659l-.259.028V23.13zM109.352 33.976c.13-.395.366-.667.725-.838l.226-.107 4.498-.01 4.497-.012 3.07-3.07c1.69-1.688 3.071-3.088 3.071-3.11 0-.024-.436-.477-.97-1.007-.532-.531-.995-1.025-1.026-1.097-.128-.294-.035-.603.243-.81.115-.084.145-.085 3.114-.096 3.342-.012 3.17-.026 3.396.27l.11.145v3.05c0 3.03 0 3.051-.085 3.166-.199.268-.56.382-.81.256-.05-.025-.538-.492-1.086-1.037l-.996-.991-3.379 3.371c-2.975 2.97-3.405 3.384-3.604 3.47l-.226.1h-9.817l-.226-.108a1.33 1.33 0 0 1-.647-.644c-.123-.266-.157-.656-.078-.891zm13.243 3.131.934-.934 1.9 1.9 1.9 1.9.996-.992c.548-.546 1.036-1.012 1.086-1.037.25-.127.611-.013.81.255.085.115.086.145.097 3.114.012 3.342.026 3.17-.27 3.396l-.146.11h-3.05c-3.03 0-3.05 0-3.166-.085-.268-.199-.382-.56-.255-.81.025-.05.491-.539 1.037-1.086l.991-.997-1.9-1.9-1.899-1.9z" transform="translate(-75.236 -22.963)"/>
  <path style="fill:#fbfbfb;fill-opacity:1" d="M160.033 46.014c-.358-.07-1.053-.82-1.053-1.138 0-.16-.238-.206-1.047-.207-3.16-.003-5.21-1.11-6.352-3.433-.395-.802-.461-1.107-.519-2.408l-.066-1.49-.776-.322c-.94-.39-2.094-1.396-2.61-2.277-.447-.763-.762-1.99-.77-3.003-.005-.706-.394-1.82-.701-2.01-.085-.053-.4.065-.702.262-.3.197-.85.434-1.22.525-1.828.453-3.734-1.136-3.734-3.112 0-3.073 4.046-4.341 5.708-1.789.43.661.441.667 1.438.77 1.286.132 2.213.488 3.19 1.225l.779.589h3.691c3.64 0 3.691-.004 3.691-.3 0-.166.19-.49.423-.723.413-.414.454-.422 1.948-.422 1.475 0 1.542.013 1.99.413.442.396.464.468.523 1.7.112 2.342-.418 2.884-2.714 2.772-1.337-.065-1.86-.287-2.144-.913l-.164-.36h-3.053c-2.855 0-3.046.017-2.94.253.063.14.152 1.294.197 2.565l.082 2.313 2.837.039 2.838.039.094-.377c.053-.207.252-.534.444-.725.327-.327.45-.35 1.956-.35 1.584 0 1.614.007 2.03.423.408.409.422.469.422 1.814 0 1.474-.188 2.102-.714 2.384-.153.082-.904.149-1.668.149-1.654 0-2.14-.191-2.386-.937l-.168-.509h-5.758v.914c0 1.4.337 2.328 1.136 3.126.893.894 1.69 1.163 3.442 1.163 1.268 0 1.347-.018 1.347-.3 0-.165.19-.49.423-.723.413-.413.454-.422 1.948-.422 1.475 0 1.542.014 1.99.413.442.396.464.468.523 1.7.108 2.258-.388 2.82-2.458 2.78-.58-.01-1.197-.047-1.373-.081zm-9.027-12.941c-.042-1.502-.11-2.024-.319-2.42-.366-.699-1.07-1.418-1.708-1.747-.54-.279-1.053-.37-.95-.168.577 1.125.75 1.702.856 2.838.144 1.562.519 2.41 1.32 2.991.32.232.643.42.718.42.083 0 .116-.766.083-1.914z" transform="translate(-75.236 -22.963)"/>
</svg>