<svg width="58.316" height="58.379" viewBox="0 0 15.43 15.446" xml:space="preserve"
  xmlns="http://www.w3.org/2000/svg">
    <path style="fill:#f8f8f8;fill-opacity:1;stroke:none;stroke-width:1" d="M6.847 190.32a4.076 4.076 0 0 0-2.563.986 5.918 5.918 0 0 0-.659.702 4.694 4.694 0 0 0-.884 2.138c-.015.1-.03.22-.034.27-.004.048-.015.162-.025.253-.045.418.039 1.042.212 1.589l.05.16c-1.27 1.701-2.82 3.04-4.213 4.575-.468.65-.791 2.063-.027 2.732.765.67 1.712.598 2.18.209 1.54-1.6 3.05-3.229 4.57-4.846l.16.055c.453.159.922.242 1.292.23a4.616 4.616 0 0 0 1.637-.351c1.144-.5 2.031-1.503 2.42-2.735a4.823 4.823 0 0 0 .195-1.936 4.96 4.96 0 0 0-.361-1.358l-.035-.082-1.457 1.548c-1.488 1.58-1.5 1.591-1.684 1.701-.245.146-.56.22-.822.194a1.433 1.433 0 0 1-1.21-1.015 1.619 1.619 0 0 1 .175-1.35c.052-.085.267-.319 1.522-1.655.893-.952 1.457-1.56 1.45-1.567a3.911 3.911 0 0 0-.47-.205 3.945 3.945 0 0 0-1.42-.241z" transform="translate(1.967 -189.177)"/>
</svg>