<svg width="23.543" height="23.543" viewBox="0 0 6.229 6.229" xml:space="preserve"
  xmlns="http://www.w3.org/2000/svg">
  <path style="fill:#f8f8f8;fill-opacity:1;stroke-width:1" d="M197.683 65.856c-.05-.023-.396-.355-.827-.792l-.743-.752-.122.077c-.677.431-1.623.494-2.344.155a2.592 2.592 0 0 1-1.467-2.01 2.604 2.604 0 0 1 1.077-2.433c.215-.148.564-.31.8-.37a3.06 3.06 0 0 1 .991-.049 2.57 2.57 0 0 1 1.976 1.61c.12.314.157.54.156.94-.002.439-.066.721-.25 1.1l-.12.248.752.767c.776.791.828.856.827 1.045a.657.657 0 0 1-.126.33.54.54 0 0 1-.58.134zm-2.66-1.956c1.077-.226 1.66-1.439 1.177-2.445a1.622 1.622 0 0 0-.793-.793c-.33-.162-.613-.211-.94-.165-.705.1-1.262.598-1.436 1.286a2.15 2.15 0 0 0-.023.777c.116.526.447.96.91 1.19.361.181.723.23 1.106.15z" transform="translate(-192.16 -59.662)"/>
</svg>