<svg width="85" height="85" viewBox="0 0 22.49 22.49" xml:space="preserve"
   xmlns="http://www.w3.org/2000/svg">
   <g style="stroke:none;stroke-width:0;stroke-dasharray:none">
      <path style="opacity:1;fill:#f8f8f8;stroke:none;stroke-width:1.24356;stroke-dasharray:none;fill-opacity:1" d="M13.966.963c-.058.001-.096.015-.11.05-.012.033-.034 1.323-.05 2.867l-.029 2.808 1.685 1.417 1.687 1.418h.55c.496 0 .572.012.756.102.447.22.863.795.96 1.325.117.64-.273 1.408-.883 1.74-.479.26-1.153.304-1.505.098-.252-.15-.815-.73-.923-.956-.08-.163-.094-.26-.09-.637.002-.37.019-.478.1-.651.084-.18.09-.214.034-.254-.588-.49-1.175-.985-1.76-1.48-1.393-1.178-1.712-1.465-1.766-1.6-.055-.14-.065-.439-.065-2.005v-1.84h-.72v4.103l.964.88c.53.484 1.105 1.016 1.28 1.184l.317.307.022 1.8.02 1.8.43.429.43.43.19-.047a1.778 1.778 0 0 1 1.85.64c.237.311.318.579.313 1.025-.009.765-.383 1.325-1.062 1.59-.197.077-.334.096-.69.1-.39.001-.468-.011-.636-.099-.293-.157-.78-.651-.89-.907-.133-.305-.163-.893-.063-1.233l.07-.248-.527-.532c-.29-.294-.56-.595-.595-.67-.06-.116-.068-.365-.07-1.84l-.003-1.706-.489-.445a58.858 58.858 0 0 0-.675-.606l-.186-.162v6.899l.193.093c.545.264.906.884.907 1.554 0 .61-.174.952-.67 1.31-.622.448-1.112.509-1.712.212-.625-.31-.96-.774-.995-1.384-.043-.744.32-1.411.922-1.692l.213-.1v-3.4c0-1.87-.011-3.4-.024-3.4-.013 0-.3.251-.635.558l-.612.558v1.632c0 .9-.018 1.709-.04 1.799-.03.135-.15.278-.64.768l-.602.603.049.192c.07.276.06.778-.02 1.046a1.666 1.666 0 0 1-2.017 1.166c-.386-.09-.596-.204-.854-.464-.276-.277-.398-.543-.446-.965-.1-.883.34-1.595 1.162-1.875.266-.09.786-.093 1.036-.003l.19.067.456-.456.457-.455v-1.684c0-1.4.01-1.707.064-1.84.047-.12.366-.435 1.27-1.258l1.207-1.1V3.366h-.758l-.013 1.895c-.01 1.811-.017 1.9-.097 2.026-.046.072-.856.782-1.798 1.578-1.115.94-1.713 1.472-1.708 1.519a1.498 1.498 0 0 0 .08.262c.05.13.075.318.078.593.003.343-.01.432-.097.606-.12.25-.627.772-.897.93-.496.292-1.344.13-1.876-.355-.413-.378-.627-.965-.535-1.468.105-.56.465-1.038.975-1.292.26-.128.3-.136.78-.138l.507-.002 1.655-1.396L8.648 6.73l.026-2.603c.024-2.643.012-3.064-.098-3.136a.176.176 0 0 0-.059-.013 10.528 10.528 0 0 0-7.8 10.153 10.528 10.528 0 0 0 10.528 10.528 10.528 10.528 0 0 0 10.528-10.528A10.528 10.528 0 0 0 13.966.963z" transform="translate(0 .114)"/>
      <path style="fill:#363636;fill-opacity:1;stroke:none;stroke-width:0;stroke-dasharray:none" d="M8.473.968a.176.176 0 0 1 .103.023c.11.072.122.493.098 3.136L8.648 6.73 6.992 8.124 5.337 9.52l-.507.002c-.48.002-.52.01-.78.138-.51.254-.87.732-.975 1.292-.092.503.122 1.09.535 1.468.532.486 1.38.647 1.876.355.27-.158.776-.68.897-.93.087-.174.1-.263.097-.606-.003-.275-.028-.463-.078-.593a1.498 1.498 0 0 1-.08-.262c-.005-.047.593-.578 1.708-1.519.942-.796 1.752-1.506 1.798-1.578.08-.126.086-.215.097-2.026l.013-1.895h.758v4.173l-1.207 1.1c-.904.823-1.223 1.138-1.27 1.258-.054.133-.064.44-.064 1.84v1.684l-.457.455-.456.456-.19-.067c-.25-.09-.77-.087-1.036.003-.822.28-1.263.992-1.162 1.875.048.422.17.688.446.965.258.26.468.373.854.464.9.212 1.755-.283 2.017-1.166.08-.268.09-.77.02-1.046l-.049-.192.602-.603c.49-.49.609-.633.64-.768.022-.09.04-.9.04-1.799v-1.632l.612-.558c.336-.307.622-.558.635-.558.013 0 .024 1.53.024 3.4v3.4l-.213.1c-.602.281-.965.948-.922 1.692.035.61.37 1.075.995 1.384.6.297 1.09.236 1.712-.212.496-.358.67-.7.67-1.31-.001-.67-.362-1.29-.907-1.554l-.193-.093V9.158l.186.162c.103.09.407.362.675.606l.489.445.003 1.706c.002 1.475.01 1.724.07 1.84.036.075.304.376.595.67l.528.532-.071.248c-.1.34-.07.928.063 1.233.11.256.597.75.89.907.168.088.246.1.636.098.356-.003.493-.022.69-.099.679-.265 1.053-.825 1.062-1.59.005-.446-.076-.714-.313-1.025a1.778 1.778 0 0 0-1.849-.64l-.191.047-.43-.43-.43-.429-.02-1.8-.022-1.8-.317-.307c-.175-.168-.75-.7-1.28-1.185l-.964-.879V3.365h.72v1.84c0 1.566.01 1.865.065 2.005.054.135.373.422 1.766 1.6.585.495 1.172.989 1.76 1.48.056.04.05.074-.034.254-.081.173-.098.28-.1.651-.004.377.01.474.09.637.108.226.671.807.923.956.352.206 1.026.162 1.505-.098.61-.332 1-1.1.883-1.74-.097-.53-.513-1.106-.96-1.325-.184-.09-.26-.102-.756-.102h-.55l-1.687-1.418-1.685-1.417.029-2.808c.016-1.544.038-2.834.05-2.867.015-.036.053-.05.114-.05-1.487-.5-3.863-.51-5.497.005Z" transform="translate(0 .114)"/>
   </g>
</svg>